<svg xmlns="http://www.w3.org/2000/svg" xmlns:xlink="http://www.w3.org/1999/xlink" version="1.1" style="" xml:space="preserve" width="330" height="330"><rect id="backgroundrect" width="100%" height="100%" x="0" y="0" fill="none" stroke="none"/>
















<g class="currentLayer" style=""><title>Layer 1</title><path id="XMLID_27_" d="M15,180h263.787l-49.394,49.394c-5.858,5.857-5.858,15.355,0,21.213C232.322,253.535,236.161,255,240,255  s7.678-1.465,10.606-4.394l75-75c5.858-5.857,5.858-15.355,0-21.213l-75-75c-5.857-5.857-15.355-5.857-21.213,0  c-5.858,5.857-5.858,15.355,0,21.213L278.787,150H15c-8.284,0-15,6.716-15,15S6.716,180,15,180z" class="selected" fill-opacity="1" fill="#badc58" transform="rotate(180.0 164.999755859375,165.00012207031253) "/><g id="svg_1">
</g><g id="svg_2">
</g><g id="svg_3">
</g><g id="svg_4">
</g><g id="svg_5">
</g><g id="svg_6">
</g><g id="svg_7">
</g><g id="svg_8">
</g><g id="svg_9">
</g><g id="svg_10">
</g><g id="svg_11">
</g><g id="svg_12">
</g><g id="svg_13">
</g><g id="svg_14">
</g><g id="svg_15">
</g></g></svg>